<svg xmlns="http://www.w3.org/2000/svg" xmlns:xlink="http://www.w3.org/1999/xlink" width="500" zoomAndPan="magnify" viewBox="0 0 375 374.999991" height="500" preserveAspectRatio="xMidYMid meet" version="1.0"><defs><clipPath id="6eb54d91a5"><path d="M 149.15625 149.15625 L 225.84375 149.15625 L 225.84375 225.84375 L 149.15625 225.84375 Z M 149.15625 149.15625 " clip-rule="nonzero"/></clipPath><clipPath id="0b32979b65"><path d="M 187.5 149.15625 C 166.324219 149.15625 149.15625 166.324219 149.15625 187.5 C 149.15625 208.675781 166.324219 225.84375 187.5 225.84375 C 208.675781 225.84375 225.84375 208.675781 225.84375 187.5 C 225.84375 166.324219 208.675781 149.15625 187.5 149.15625 Z M 187.5 149.15625 " clip-rule="nonzero"/></clipPath><clipPath id="6e54d254c9"><path d="M 160.34375 160.34375 L 214.65625 160.34375 L 214.65625 214.65625 L 160.34375 214.65625 Z M 160.34375 160.34375 " clip-rule="nonzero"/></clipPath><clipPath id="95b08c4471"><path d="M 187.5 160.34375 C 172.5 160.34375 160.34375 172.5 160.34375 187.5 C 160.34375 202.5 172.5 214.65625 187.5 214.65625 C 202.5 214.65625 214.65625 202.5 214.65625 187.5 C 214.65625 172.5 202.5 160.34375 187.5 160.34375 Z M 187.5 160.34375 " clip-rule="nonzero"/></clipPath><clipPath id="2510f9864a"><path d="M 160.34375 160.34375 L 214.65625 160.34375 L 214.65625 214.65625 L 160.34375 214.65625 Z M 160.34375 160.34375 " clip-rule="nonzero"/></clipPath><clipPath id="10496028ba"><path d="M 187.5 160.34375 C 172.5 160.34375 160.34375 172.5 160.34375 187.5 C 160.34375 202.496094 172.5 214.65625 187.5 214.65625 C 202.496094 214.65625 214.65625 202.496094 214.65625 187.5 C 214.65625 172.5 202.496094 160.34375 187.5 160.34375 Z M 187.5 160.34375 " clip-rule="nonzero"/></clipPath><clipPath id="239adac84e"><path d="M 178 170.945312 L 199.296875 170.945312 L 199.296875 202 L 178 202 Z M 178 170.945312 " clip-rule="nonzero"/></clipPath><clipPath id="1607818ede"><path d="M 175.671875 198 L 181 198 L 181 204 L 175.671875 204 Z M 175.671875 198 " clip-rule="nonzero"/></clipPath></defs><g clip-path="url(#6eb54d91a5)"><g clip-path="url(#0b32979b65)"><path fill="#004aad" d="M 149.15625 149.15625 L 225.84375 149.15625 L 225.84375 225.84375 L 149.15625 225.84375 Z M 149.15625 149.15625 " fill-opacity="1" fill-rule="nonzero"/><path stroke-linecap="butt" transform="matrix(0.1875, 0, 0, 0.1875, 149.156246, 149.156241)" fill="none" stroke-linejoin="miter" d="M 204.50002 0.0000458378 C 91.562521 0.0000458378 0.0000218378 91.562545 0.0000218378 204.500044 C 0.0000218378 317.437542 91.562521 409.000041 204.50002 409.000041 C 317.437518 409.000041 409.000017 317.437542 409.000017 204.500044 C 409.000017 91.562545 317.437518 0.0000458378 204.50002 0.0000458378 Z M 204.50002 0.0000458378 " stroke="#000000" stroke-width="40" stroke-opacity="1" stroke-miterlimit="4"/></g></g><g clip-path="url(#6e54d254c9)"><g clip-path="url(#95b08c4471)"><path fill="#ffffff" d="M 160.34375 160.34375 L 214.65625 160.34375 L 214.65625 214.65625 L 160.34375 214.65625 Z M 160.34375 160.34375 " fill-opacity="1" fill-rule="nonzero"/></g></g><g clip-path="url(#2510f9864a)"><g clip-path="url(#10496028ba)"><path stroke-linecap="butt" transform="matrix(0.1875, 0, 0, 0.1875, 160.342552, 160.342547)" fill="none" stroke-linejoin="miter" d="M 144.839734 0.00641562 C 64.839729 0.00641562 0.00639162 64.839753 0.00639162 144.839758 C 0.00639162 224.81893 64.839729 289.673101 144.839734 289.673101 C 224.818906 289.673101 289.673077 224.81893 289.673077 144.839758 C 289.673077 64.839753 224.818906 0.00641562 144.839734 0.00641562 Z M 144.839734 0.00641562 " stroke="#000000" stroke-width="40" stroke-opacity="1" stroke-miterlimit="4"/></g></g><path fill="#000000" d="M 189.988281 201.496094 C 189.988281 194.964844 184.691406 189.667969 178.160156 189.667969 L 178.160156 194.328125 C 182.109375 194.328125 185.332031 197.523438 185.332031 201.496094 Z M 189.988281 201.496094 " fill-opacity="1" fill-rule="evenodd"/><g clip-path="url(#239adac84e)"><path fill="#000000" d="M 193.070312 180.421875 C 193.621094 180.878906 193.917969 181.585938 193.894531 182.292969 C 193.847656 183.183594 193.324219 183.960938 192.5 184.324219 C 191.816406 184.644531 191.015625 184.578125 190.375 184.210938 C 186.929688 181.769531 182.703125 180.328125 178.160156 180.328125 L 178.160156 184.988281 C 187.269531 184.988281 194.648438 192.363281 194.648438 201.476562 L 199.304688 201.476562 C 199.304688 196.359375 197.5 191.679688 194.488281 188.023438 C 195.925781 187.25 197.023438 185.992188 197.617188 184.507812 C 197.914062 183.777344 198.09375 183 198.117188 182.179688 C 198.210938 179.828125 197.136719 177.613281 195.261719 176.242188 C 190.375 172.929688 184.507812 170.988281 178.160156 170.988281 L 178.160156 175.648438 C 183.710938 175.648438 188.847656 177.40625 193.070312 180.375 Z M 193.070312 180.421875 " fill-opacity="1" fill-rule="evenodd"/></g><g clip-path="url(#1607818ede)"><path fill="#004aad" d="M 178.160156 198.984375 C 176.789062 198.984375 175.671875 200.105469 175.671875 201.476562 C 175.671875 202.84375 176.789062 203.964844 178.160156 203.964844 C 179.53125 203.964844 180.648438 202.84375 180.648438 201.476562 C 180.648438 200.105469 179.53125 198.984375 178.160156 198.984375 Z M 178.160156 198.984375 " fill-opacity="1" fill-rule="evenodd"/></g></svg>